<?xml version="1.0" encoding="UTF-8"?>
<svg xmlns="http://www.w3.org/2000/svg" width="680" height="759" viewBox="0 0 680 759">
<style>
@font-face {
    src: local('Consolas'), local('Monaco'), local('Menlo');
    font-family: 'MonoFallback';
    font-display: swap;
}
text {
    font-family: 'MonoFallback', ui-monospace, SFMono-Regular, 'SF Mono', Menlo, Consolas, monospace;
    white-space: pre;
    dominant-baseline: text-before-edge;
}
</style>
<rect width="680" height="759" fill="#0d1117" rx="10"/>
<text x="254.2" y="16" fill="#c8ff00" font-size="11px">##########################</text>
<text x="227.8" y="29" fill="#c8ff00" font-size="11px">##################################</text>
<text x="201.4" y="42" fill="#c8ff00" font-size="11px">##########################################</text>
<text x="181.6" y="55" fill="#c8ff00" font-size="11px">############</text>
<text x="260.8" y="55" fill="#5a7a00" font-size="11px">++-</text>
<text x="280.6" y="55" fill="#1a2600" font-size="11px">..................</text>
<text x="399.4" y="55" fill="#5a7a00" font-size="11px">-++</text>
<text x="419.2" y="55" fill="#c8ff00" font-size="11px">############</text>
<text x="161.8" y="68" fill="#c8ff00" font-size="11px">###########</text>
<text x="234.4" y="68" fill="#5a7a00" font-size="11px">+-</text>
<text x="247.6" y="68" fill="#1a2600" font-size="11px">............................</text>
<text x="432.4" y="68" fill="#5a7a00" font-size="11px">-+</text>
<text x="445.6" y="68" fill="#c8ff00" font-size="11px">###########</text>
<text x="148.6" y="81" fill="#c8ff00" font-size="11px">#########</text>
<text x="208.0" y="81" fill="#5a7a00" font-size="11px">+-</text>
<text x="221.2" y="81" fill="#1a2600" font-size="11px">....................................</text>
<text x="458.8" y="81" fill="#5a7a00" font-size="11px">-+</text>
<text x="472.0" y="81" fill="#c8ff00" font-size="11px">#########</text>
<text x="135.4" y="94" fill="#c8ff00" font-size="11px">#########</text>
<text x="194.8" y="94" fill="#5a7a00" font-size="11px">-</text>
<text x="201.4" y="94" fill="#1a2600" font-size="11px">..........................................</text>
<text x="478.6" y="94" fill="#5a7a00" font-size="11px">-</text>
<text x="485.2" y="94" fill="#c8ff00" font-size="11px">#########</text>
<text x="122.2" y="107" fill="#c8ff00" font-size="11px">########</text>
<text x="175.0" y="107" fill="#5a7a00" font-size="11px">+</text>
<text x="181.6" y="107" fill="#1a2600" font-size="11px">................................................</text>
<text x="498.4" y="107" fill="#5a7a00" font-size="11px">+</text>
<text x="505.0" y="107" fill="#c8ff00" font-size="11px">########</text>
<text x="115.6" y="120" fill="#c8ff00" font-size="11px">#######</text>
<text x="161.8" y="120" fill="#5a7a00" font-size="11px">+-</text>
<text x="175.0" y="120" fill="#1a2600" font-size="11px">...................................................</text>
<text x="511.6" y="120" fill="#5a7a00" font-size="11px">+</text>
<text x="518.2" y="120" fill="#c8ff00" font-size="11px">#######</text>
<text x="102.4" y="133" fill="#c8ff00" font-size="11px">########</text>
<text x="155.2" y="133" fill="#5a7a00" font-size="11px">-</text>
<text x="161.8" y="133" fill="#1a2600" font-size="11px">.....................................</text>
<text x="406.0" y="133" fill="#5a7a00" font-size="11px">--++--</text>
<text x="445.6" y="133" fill="#1a2600" font-size="11px">...........</text>
<text x="518.2" y="133" fill="#5a7a00" font-size="11px">-</text>
<text x="524.8" y="133" fill="#c8ff00" font-size="11px">########</text>
<text x="95.8" y="146" fill="#c8ff00" font-size="11px">#######</text>
<text x="142.0" y="146" fill="#5a7a00" font-size="11px">-</text>
<text x="148.6" y="146" fill="#1a2600" font-size="11px">...................................</text>
<text x="379.6" y="146" fill="#5a7a00" font-size="11px">-</text>
<text x="386.2" y="146" fill="#c8ff00" font-size="11px">###########</text>
<text x="458.8" y="146" fill="#5a7a00" font-size="11px">+</text>
<text x="465.4" y="146" fill="#1a2600" font-size="11px">..........</text>
<text x="531.4" y="146" fill="#5a7a00" font-size="11px">-</text>
<text x="538.0" y="146" fill="#c8ff00" font-size="11px">#######</text>
<text x="89.2" y="159" fill="#c8ff00" font-size="11px">#######</text>
<text x="135.4" y="159" fill="#5a7a00" font-size="11px">-</text>
<text x="142.0" y="159" fill="#1a2600" font-size="11px">.........</text>
<text x="201.4" y="159" fill="#5a7a00" font-size="11px">-+</text>
<text x="214.6" y="159" fill="#c8ff00" font-size="11px">###########</text>
<text x="287.2" y="159" fill="#5a7a00" font-size="11px">-</text>
<text x="293.8" y="159" fill="#1a2600" font-size="11px">............</text>
<text x="373.0" y="159" fill="#5a7a00" font-size="11px">+</text>
<text x="379.6" y="159" fill="#c8ff00" font-size="11px">##############</text>
<text x="472.0" y="159" fill="#5a7a00" font-size="11px">+</text>
<text x="478.6" y="159" fill="#1a2600" font-size="11px">.........</text>
<text x="538.0" y="159" fill="#5a7a00" font-size="11px">-</text>
<text x="544.6" y="159" fill="#c8ff00" font-size="11px">#######</text>
<text x="82.6" y="172" fill="#c8ff00" font-size="11px">#######</text>
<text x="128.8" y="172" fill="#1a2600" font-size="11px">.........</text>
<text x="188.2" y="172" fill="#5a7a00" font-size="11px">-</text>
<text x="194.8" y="172" fill="#c8ff00" font-size="11px">################</text>
<text x="300.4" y="172" fill="#5a7a00" font-size="11px">+</text>
<text x="307.0" y="172" fill="#1a2600" font-size="11px">.........</text>
<text x="366.4" y="172" fill="#c8ff00" font-size="11px">#######</text>
<text x="412.6" y="172" fill="#5a7a00" font-size="11px">++++</text>
<text x="439.0" y="172" fill="#c8ff00" font-size="11px">######</text>
<text x="478.6" y="172" fill="#5a7a00" font-size="11px">+</text>
<text x="485.2" y="172" fill="#1a2600" font-size="11px">..........</text>
<text x="551.2" y="172" fill="#5a7a00" font-size="11px">+</text>
<text x="557.8" y="172" fill="#c8ff00" font-size="11px">######</text>
<text x="76.0" y="185" fill="#c8ff00" font-size="11px">#######</text>
<text x="122.2" y="185" fill="#1a2600" font-size="11px">.........</text>
<text x="181.6" y="185" fill="#5a7a00" font-size="11px">-</text>
<text x="188.2" y="185" fill="#c8ff00" font-size="11px">#######</text>
<text x="234.4" y="185" fill="#5a7a00" font-size="11px">++++</text>
<text x="260.8" y="185" fill="#c8ff00" font-size="11px">######</text>
<text x="300.4" y="185" fill="#5a7a00" font-size="11px">+-</text>
<text x="313.6" y="185" fill="#1a2600" font-size="11px">.......</text>
<text x="359.8" y="185" fill="#5a7a00" font-size="11px">-</text>
<text x="366.4" y="185" fill="#c8ff00" font-size="11px">#####</text>
<text x="399.4" y="185" fill="#5a7a00" font-size="11px">-</text>
<text x="406.0" y="185" fill="#1a2600" font-size="11px">.....</text>
<text x="439.0" y="185" fill="#5a7a00" font-size="11px">-</text>
<text x="445.6" y="185" fill="#c8ff00" font-size="11px">######</text>
<text x="485.2" y="185" fill="#5a7a00" font-size="11px">-</text>
<text x="491.8" y="185" fill="#1a2600" font-size="11px">..........</text>
<text x="557.8" y="185" fill="#c8ff00" font-size="11px">#######</text>
<text x="69.4" y="198" fill="#c8ff00" font-size="11px">######</text>
<text x="109.0" y="198" fill="#5a7a00" font-size="11px">+</text>
<text x="115.6" y="198" fill="#1a2600" font-size="11px">.........</text>
<text x="175.0" y="198" fill="#5a7a00" font-size="11px">-</text>
<text x="181.6" y="198" fill="#c8ff00" font-size="11px">######</text>
<text x="221.2" y="198" fill="#5a7a00" font-size="11px">-</text>
<text x="227.8" y="198" fill="#1a2600" font-size="11px">.......</text>
<text x="274.0" y="198" fill="#5a7a00" font-size="11px">+</text>
<text x="280.6" y="198" fill="#c8ff00" font-size="11px">#</text>
<text x="287.2" y="198" fill="#5a7a00" font-size="11px">-</text>
<text x="293.8" y="198" fill="#1a2600" font-size="11px">..........</text>
<text x="359.8" y="198" fill="#5a7a00" font-size="11px">------</text>
<text x="399.4" y="198" fill="#1a2600" font-size="11px">......</text>
<text x="439.0" y="198" fill="#5a7a00" font-size="11px">-</text>
<text x="445.6" y="198" fill="#c8ff00" font-size="11px">######</text>
<text x="485.2" y="198" fill="#5a7a00" font-size="11px">-</text>
<text x="491.8" y="198" fill="#1a2600" font-size="11px">...........</text>
<text x="564.4" y="198" fill="#c8ff00" font-size="11px">#######</text>
<text x="69.4" y="211" fill="#c8ff00" font-size="11px">######</text>
<text x="109.0" y="211" fill="#5a7a00" font-size="11px">-</text>
<text x="115.6" y="211" fill="#1a2600" font-size="11px">.........</text>
<text x="175.0" y="211" fill="#c8ff00" font-size="11px">######</text>
<text x="214.6" y="211" fill="#1a2600" font-size="11px">.................................</text>
<text x="432.4" y="211" fill="#5a7a00" font-size="11px">-</text>
<text x="439.0" y="211" fill="#c8ff00" font-size="11px">######</text>
<text x="478.6" y="211" fill="#5a7a00" font-size="11px">-</text>
<text x="485.2" y="211" fill="#1a2600" font-size="11px">............</text>
<text x="564.4" y="211" fill="#5a7a00" font-size="11px">-</text>
<text x="571.0" y="211" fill="#c8ff00" font-size="11px">#######</text>
<text x="62.8" y="224" fill="#c8ff00" font-size="11px">######</text>
<text x="102.4" y="224" fill="#5a7a00" font-size="11px">-</text>
<text x="109.0" y="224" fill="#1a2600" font-size="11px">.........</text>
<text x="168.4" y="224" fill="#5a7a00" font-size="11px">-</text>
<text x="175.0" y="224" fill="#c8ff00" font-size="11px">#####</text>
<text x="208.0" y="224" fill="#5a7a00" font-size="11px">+</text>
<text x="214.6" y="224" fill="#1a2600" font-size="11px">...............................</text>
<text x="419.2" y="224" fill="#5a7a00" font-size="11px">-</text>
<text x="425.8" y="224" fill="#c8ff00" font-size="11px">#######</text>
<text x="472.0" y="224" fill="#5a7a00" font-size="11px">-</text>
<text x="478.6" y="224" fill="#1a2600" font-size="11px">..............</text>
<text x="571.0" y="224" fill="#5a7a00" font-size="11px">-</text>
<text x="577.6" y="224" fill="#c8ff00" font-size="11px">######</text>
<text x="62.8" y="237" fill="#c8ff00" font-size="11px">######</text>
<text x="102.4" y="237" fill="#1a2600" font-size="11px">..........</text>
<text x="168.4" y="237" fill="#5a7a00" font-size="11px">-</text>
<text x="175.0" y="237" fill="#c8ff00" font-size="11px">#####</text>
<text x="208.0" y="237" fill="#5a7a00" font-size="11px">+</text>
<text x="214.6" y="237" fill="#1a2600" font-size="11px">.............................</text>
<text x="406.0" y="237" fill="#5a7a00" font-size="11px">-</text>
<text x="412.6" y="237" fill="#c8ff00" font-size="11px">#######</text>
<text x="458.8" y="237" fill="#5a7a00" font-size="11px">-</text>
<text x="465.4" y="237" fill="#1a2600" font-size="11px">.................</text>
<text x="577.6" y="237" fill="#5a7a00" font-size="11px">+</text>
<text x="584.2" y="237" fill="#c8ff00" font-size="11px">######</text>
<text x="56.2" y="250" fill="#c8ff00" font-size="11px">######</text>
<text x="95.8" y="250" fill="#5a7a00" font-size="11px">-</text>
<text x="102.4" y="250" fill="#1a2600" font-size="11px">..........</text>
<text x="168.4" y="250" fill="#5a7a00" font-size="11px">-</text>
<text x="175.0" y="250" fill="#c8ff00" font-size="11px">######</text>
<text x="214.6" y="250" fill="#1a2600" font-size="11px">.............................</text>
<text x="406.0" y="250" fill="#c8ff00" font-size="11px">######</text>
<text x="445.6" y="250" fill="#5a7a00" font-size="11px">-</text>
<text x="452.2" y="250" fill="#1a2600" font-size="11px">...................</text>
<text x="577.6" y="250" fill="#5a7a00" font-size="11px">-</text>
<text x="584.2" y="250" fill="#c8ff00" font-size="11px">######</text>
<text x="56.2" y="263" fill="#c8ff00" font-size="11px">######</text>
<text x="95.8" y="263" fill="#1a2600" font-size="11px">............</text>
<text x="175.0" y="263" fill="#c8ff00" font-size="11px">######</text>
<text x="214.6" y="263" fill="#5a7a00" font-size="11px">+</text>
<text x="221.2" y="263" fill="#1a2600" font-size="11px">.........</text>
<text x="280.6" y="263" fill="#5a7a00" font-size="11px">-</text>
<text x="287.2" y="263" fill="#1a2600" font-size="11px">..................</text>
<text x="406.0" y="263" fill="#c8ff00" font-size="11px">#####</text>
<text x="439.0" y="263" fill="#5a7a00" font-size="11px">+</text>
<text x="445.6" y="263" fill="#1a2600" font-size="11px">.....................</text>
<text x="584.2" y="263" fill="#c8ff00" font-size="11px">######</text>
<text x="56.2" y="276" fill="#c8ff00" font-size="11px">#####</text>
<text x="89.2" y="276" fill="#5a7a00" font-size="11px">+</text>
<text x="95.8" y="276" fill="#1a2600" font-size="11px">.............</text>
<text x="181.6" y="276" fill="#c8ff00" font-size="11px">#######</text>
<text x="227.8" y="276" fill="#5a7a00" font-size="11px">+-</text>
<text x="241.0" y="276" fill="#1a2600" font-size="11px">..</text>
<text x="254.2" y="276" fill="#5a7a00" font-size="11px">--+</text>
<text x="274.0" y="276" fill="#c8ff00" font-size="11px">###</text>
<text x="293.8" y="276" fill="#5a7a00" font-size="11px">+-</text>
<text x="307.0" y="276" fill="#1a2600" font-size="11px">..........................................</text>
<text x="584.2" y="276" fill="#5a7a00" font-size="11px">+</text>
<text x="590.8" y="276" fill="#c8ff00" font-size="11px">#####</text>
<text x="56.2" y="289" fill="#c8ff00" font-size="11px">#####</text>
<text x="89.2" y="289" fill="#5a7a00" font-size="11px">+</text>
<text x="95.8" y="289" fill="#1a2600" font-size="11px">..............</text>
<text x="188.2" y="289" fill="#5a7a00" font-size="11px">+</text>
<text x="194.8" y="289" fill="#c8ff00" font-size="11px">#################</text>
<text x="307.0" y="289" fill="#5a7a00" font-size="11px">-</text>
<text x="313.6" y="289" fill="#1a2600" font-size="11px">..............</text>
<text x="406.0" y="289" fill="#c8ff00" font-size="11px">#####</text>
<text x="439.0" y="289" fill="#5a7a00" font-size="11px">-</text>
<text x="445.6" y="289" fill="#1a2600" font-size="11px">.....................</text>
<text x="584.2" y="289" fill="#5a7a00" font-size="11px">-</text>
<text x="590.8" y="289" fill="#c8ff00" font-size="11px">#####</text>
<text x="56.2" y="302" fill="#c8ff00" font-size="11px">#####</text>
<text x="89.2" y="302" fill="#5a7a00" font-size="11px">-</text>
<text x="95.8" y="302" fill="#1a2600" font-size="11px">...............</text>
<text x="194.8" y="302" fill="#5a7a00" font-size="11px">-+</text>
<text x="208.0" y="302" fill="#c8ff00" font-size="11px">#############</text>
<text x="293.8" y="302" fill="#5a7a00" font-size="11px">-</text>
<text x="300.4" y="302" fill="#1a2600" font-size="11px">................</text>
<text x="406.0" y="302" fill="#c8ff00" font-size="11px">#####</text>
<text x="439.0" y="302" fill="#5a7a00" font-size="11px">+</text>
<text x="445.6" y="302" fill="#1a2600" font-size="11px">.....................</text>
<text x="584.2" y="302" fill="#5a7a00" font-size="11px">-</text>
<text x="590.8" y="302" fill="#c8ff00" font-size="11px">#####</text>
<text x="56.2" y="315" fill="#c8ff00" font-size="11px">#####</text>
<text x="89.2" y="315" fill="#5a7a00" font-size="11px">-</text>
<text x="95.8" y="315" fill="#1a2600" font-size="11px">...................</text>
<text x="221.2" y="315" fill="#5a7a00" font-size="11px">-+</text>
<text x="234.4" y="315" fill="#c8ff00" font-size="11px">#####</text>
<text x="267.4" y="315" fill="#5a7a00" font-size="11px">+-</text>
<text x="280.6" y="315" fill="#1a2600" font-size="11px">...................</text>
<text x="406.0" y="315" fill="#c8ff00" font-size="11px">#####</text>
<text x="439.0" y="315" fill="#5a7a00" font-size="11px">-</text>
<text x="445.6" y="315" fill="#1a2600" font-size="11px">.....................</text>
<text x="584.2" y="315" fill="#5a7a00" font-size="11px">-</text>
<text x="590.8" y="315" fill="#c8ff00" font-size="11px">#####</text>
<text x="56.2" y="328" fill="#c8ff00" font-size="11px">#####</text>
<text x="89.2" y="328" fill="#5a7a00" font-size="11px">-</text>
<text x="95.8" y="328" fill="#1a2600" font-size="11px">..........................................................................</text>
<text x="584.2" y="328" fill="#5a7a00" font-size="11px">-</text>
<text x="590.8" y="328" fill="#c8ff00" font-size="11px">#####</text>
<text x="56.2" y="341" fill="#c8ff00" font-size="11px">#####</text>
<text x="89.2" y="341" fill="#5a7a00" font-size="11px">+</text>
<text x="95.8" y="341" fill="#1a2600" font-size="11px">..........................................................................</text>
<text x="584.2" y="341" fill="#5a7a00" font-size="11px">+</text>
<text x="590.8" y="341" fill="#c8ff00" font-size="11px">#####</text>
<text x="56.2" y="354" fill="#c8ff00" font-size="11px">######</text>
<text x="95.8" y="354" fill="#1a2600" font-size="11px">..............</text>
<text x="188.2" y="354" fill="#5a7a00" font-size="11px">-+++++-</text>
<text x="234.4" y="354" fill="#1a2600" font-size="11px">............</text>
<text x="313.6" y="354" fill="#5a7a00" font-size="11px">-+++++-</text>
<text x="359.8" y="354" fill="#1a2600" font-size="11px">............</text>
<text x="439.0" y="354" fill="#5a7a00" font-size="11px">-++++++</text>
<text x="485.2" y="354" fill="#1a2600" font-size="11px">...............</text>
<text x="584.2" y="354" fill="#5a7a00" font-size="11px">+</text>
<text x="590.8" y="354" fill="#c8ff00" font-size="11px">#####</text>
<text x="56.2" y="367" fill="#c8ff00" font-size="11px">######</text>
<text x="95.8" y="367" fill="#5a7a00" font-size="11px">-</text>
<text x="102.4" y="367" fill="#1a2600" font-size="11px">.............</text>
<text x="188.2" y="367" fill="#5a7a00" font-size="11px">-</text>
<text x="194.8" y="367" fill="#c8ff00" font-size="11px">######</text>
<text x="234.4" y="367" fill="#5a7a00" font-size="11px">-</text>
<text x="241.0" y="367" fill="#1a2600" font-size="11px">...........</text>
<text x="313.6" y="367" fill="#c8ff00" font-size="11px">#######</text>
<text x="359.8" y="367" fill="#5a7a00" font-size="11px">-</text>
<text x="366.4" y="367" fill="#1a2600" font-size="11px">...........</text>
<text x="439.0" y="367" fill="#c8ff00" font-size="11px">######</text>
<text x="478.6" y="367" fill="#5a7a00" font-size="11px">-</text>
<text x="485.2" y="367" fill="#1a2600" font-size="11px">...............</text>
<text x="584.2" y="367" fill="#c8ff00" font-size="11px">######</text>
<text x="56.2" y="380" fill="#c8ff00" font-size="11px">######</text>
<text x="95.8" y="380" fill="#5a7a00" font-size="11px">+</text>
<text x="102.4" y="380" fill="#1a2600" font-size="11px">..............</text>
<text x="194.8" y="380" fill="#5a7a00" font-size="11px">-</text>
<text x="201.4" y="380" fill="#c8ff00" font-size="11px">######</text>
<text x="241.0" y="380" fill="#1a2600" font-size="11px">..........</text>
<text x="307.0" y="380" fill="#c8ff00" font-size="11px">#########</text>
<text x="366.4" y="380" fill="#1a2600" font-size="11px">..........</text>
<text x="432.4" y="380" fill="#5a7a00" font-size="11px">+</text>
<text x="439.0" y="380" fill="#c8ff00" font-size="11px">#####</text>
<text x="472.0" y="380" fill="#5a7a00" font-size="11px">+</text>
<text x="478.6" y="380" fill="#1a2600" font-size="11px">...............</text>
<text x="577.6" y="380" fill="#5a7a00" font-size="11px">-</text>
<text x="584.2" y="380" fill="#c8ff00" font-size="11px">######</text>
<text x="62.8" y="393" fill="#c8ff00" font-size="11px">######</text>
<text x="102.4" y="393" fill="#5a7a00" font-size="11px">-</text>
<text x="109.0" y="393" fill="#1a2600" font-size="11px">..............</text>
<text x="201.4" y="393" fill="#5a7a00" font-size="11px">+</text>
<text x="208.0" y="393" fill="#c8ff00" font-size="11px">#####</text>
<text x="241.0" y="393" fill="#5a7a00" font-size="11px">+</text>
<text x="247.6" y="393" fill="#1a2600" font-size="11px">........</text>
<text x="300.4" y="393" fill="#5a7a00" font-size="11px">+</text>
<text x="307.0" y="393" fill="#c8ff00" font-size="11px">#########</text>
<text x="366.4" y="393" fill="#5a7a00" font-size="11px">+</text>
<text x="373.0" y="393" fill="#1a2600" font-size="11px">........</text>
<text x="425.8" y="393" fill="#5a7a00" font-size="11px">-</text>
<text x="432.4" y="393" fill="#c8ff00" font-size="11px">######</text>
<text x="472.0" y="393" fill="#1a2600" font-size="11px">................</text>
<text x="577.6" y="393" fill="#c8ff00" font-size="11px">######</text>
<text x="62.8" y="406" fill="#c8ff00" font-size="11px">######</text>
<text x="102.4" y="406" fill="#5a7a00" font-size="11px">+</text>
<text x="109.0" y="406" fill="#1a2600" font-size="11px">...............</text>
<text x="208.0" y="406" fill="#c8ff00" font-size="11px">######</text>
<text x="247.6" y="406" fill="#5a7a00" font-size="11px">-</text>
<text x="254.2" y="406" fill="#1a2600" font-size="11px">......</text>
<text x="293.8" y="406" fill="#5a7a00" font-size="11px">-</text>
<text x="300.4" y="406" fill="#c8ff00" font-size="11px">###########</text>
<text x="373.0" y="406" fill="#5a7a00" font-size="11px">-</text>
<text x="379.6" y="406" fill="#1a2600" font-size="11px">......</text>
<text x="419.2" y="406" fill="#5a7a00" font-size="11px">-</text>
<text x="425.8" y="406" fill="#c8ff00" font-size="11px">######</text>
<text x="465.4" y="406" fill="#1a2600" font-size="11px">................</text>
<text x="571.0" y="406" fill="#5a7a00" font-size="11px">-</text>
<text x="577.6" y="406" fill="#c8ff00" font-size="11px">######</text>
<text x="69.4" y="419" fill="#c8ff00" font-size="11px">######</text>
<text x="109.0" y="419" fill="#5a7a00" font-size="11px">-</text>
<text x="115.6" y="419" fill="#1a2600" font-size="11px">..............</text>
<text x="208.0" y="419" fill="#5a7a00" font-size="11px">-</text>
<text x="214.6" y="419" fill="#c8ff00" font-size="11px">######</text>
<text x="254.2" y="419" fill="#1a2600" font-size="11px">......</text>
<text x="293.8" y="419" fill="#c8ff00" font-size="11px">######</text>
<text x="333.4" y="419" fill="#5a7a00" font-size="11px">-</text>
<text x="340.0" y="419" fill="#c8ff00" font-size="11px">######</text>
<text x="379.6" y="419" fill="#1a2600" font-size="11px">......</text>
<text x="419.2" y="419" fill="#5a7a00" font-size="11px">+</text>
<text x="425.8" y="419" fill="#c8ff00" font-size="11px">#####</text>
<text x="458.8" y="419" fill="#5a7a00" font-size="11px">-</text>
<text x="465.4" y="419" fill="#1a2600" font-size="11px">...............</text>
<text x="564.4" y="419" fill="#5a7a00" font-size="11px">-</text>
<text x="571.0" y="419" fill="#c8ff00" font-size="11px">######</text>
<text x="69.4" y="432" fill="#c8ff00" font-size="11px">#######</text>
<text x="115.6" y="432" fill="#1a2600" font-size="11px">...............</text>
<text x="214.6" y="432" fill="#5a7a00" font-size="11px">-</text>
<text x="221.2" y="432" fill="#c8ff00" font-size="11px">#####</text>
<text x="254.2" y="432" fill="#5a7a00" font-size="11px">+</text>
<text x="260.8" y="432" fill="#1a2600" font-size="11px">....</text>
<text x="287.2" y="432" fill="#5a7a00" font-size="11px">+</text>
<text x="293.8" y="432" fill="#c8ff00" font-size="11px">#####</text>
<text x="326.8" y="432" fill="#5a7a00" font-size="11px">-</text>
<text x="333.4" y="432" fill="#1a2600" font-size="11px">..</text>
<text x="346.6" y="432" fill="#c8ff00" font-size="11px">######</text>
<text x="386.2" y="432" fill="#1a2600" font-size="11px">....</text>
<text x="412.6" y="432" fill="#5a7a00" font-size="11px">-</text>
<text x="419.2" y="432" fill="#c8ff00" font-size="11px">#####</text>
<text x="452.2" y="432" fill="#5a7a00" font-size="11px">+</text>
<text x="458.8" y="432" fill="#1a2600" font-size="11px">................</text>
<text x="564.4" y="432" fill="#c8ff00" font-size="11px">#######</text>
<text x="76.0" y="445" fill="#c8ff00" font-size="11px">#######</text>
<text x="122.2" y="445" fill="#5a7a00" font-size="11px">-</text>
<text x="128.8" y="445" fill="#1a2600" font-size="11px">..............</text>
<text x="221.2" y="445" fill="#5a7a00" font-size="11px">+</text>
<text x="227.8" y="445" fill="#c8ff00" font-size="11px">#####</text>
<text x="260.8" y="445" fill="#5a7a00" font-size="11px">-</text>
<text x="267.4" y="445" fill="#1a2600" font-size="11px">..</text>
<text x="280.6" y="445" fill="#5a7a00" font-size="11px">-</text>
<text x="287.2" y="445" fill="#c8ff00" font-size="11px">#####</text>
<text x="320.2" y="445" fill="#5a7a00" font-size="11px">+</text>
<text x="326.8" y="445" fill="#1a2600" font-size="11px">...</text>
<text x="346.6" y="445" fill="#5a7a00" font-size="11px">+</text>
<text x="353.2" y="445" fill="#c8ff00" font-size="11px">#####</text>
<text x="386.2" y="445" fill="#5a7a00" font-size="11px">+</text>
<text x="392.8" y="445" fill="#1a2600" font-size="11px">..</text>
<text x="406.0" y="445" fill="#5a7a00" font-size="11px">-</text>
<text x="412.6" y="445" fill="#c8ff00" font-size="11px">######</text>
<text x="452.2" y="445" fill="#5a7a00" font-size="11px">-</text>
<text x="458.8" y="445" fill="#1a2600" font-size="11px">...............</text>
<text x="557.8" y="445" fill="#c8ff00" font-size="11px">#######</text>
<text x="82.6" y="458" fill="#c8ff00" font-size="11px">#######</text>
<text x="128.8" y="458" fill="#5a7a00" font-size="11px">-</text>
<text x="135.4" y="458" fill="#1a2600" font-size="11px">.............</text>
<text x="221.2" y="458" fill="#5a7a00" font-size="11px">-</text>
<text x="227.8" y="458" fill="#c8ff00" font-size="11px">######</text>
<text x="267.4" y="458" fill="#5a7a00" font-size="11px">-</text>
<text x="274.0" y="458" fill="#1a2600" font-size="11px">.</text>
<text x="280.6" y="458" fill="#c8ff00" font-size="11px">######</text>
<text x="320.2" y="458" fill="#1a2600" font-size="11px">.....</text>
<text x="353.2" y="458" fill="#5a7a00" font-size="11px">+</text>
<text x="359.8" y="458" fill="#c8ff00" font-size="11px">#####</text>
<text x="392.8" y="458" fill="#5a7a00" font-size="11px">-</text>
<text x="399.4" y="458" fill="#1a2600" font-size="11px">.</text>
<text x="406.0" y="458" fill="#c8ff00" font-size="11px">######</text>
<text x="445.6" y="458" fill="#5a7a00" font-size="11px">-</text>
<text x="452.2" y="458" fill="#1a2600" font-size="11px">..............</text>
<text x="544.6" y="458" fill="#5a7a00" font-size="11px">-</text>
<text x="551.2" y="458" fill="#c8ff00" font-size="11px">#######</text>
<text x="89.2" y="471" fill="#c8ff00" font-size="11px">#######</text>
<text x="135.4" y="471" fill="#5a7a00" font-size="11px">-</text>
<text x="142.0" y="471" fill="#1a2600" font-size="11px">.............</text>
<text x="227.8" y="471" fill="#5a7a00" font-size="11px">-</text>
<text x="234.4" y="471" fill="#c8ff00" font-size="11px">#####</text>
<text x="267.4" y="471" fill="#5a7a00" font-size="11px">+</text>
<text x="274.0" y="471" fill="#c8ff00" font-size="11px">######</text>
<text x="313.6" y="471" fill="#1a2600" font-size="11px">......</text>
<text x="353.2" y="471" fill="#5a7a00" font-size="11px">-</text>
<text x="359.8" y="471" fill="#c8ff00" font-size="11px">######</text>
<text x="399.4" y="471" fill="#5a7a00" font-size="11px">+</text>
<text x="406.0" y="471" fill="#c8ff00" font-size="11px">#####</text>
<text x="439.0" y="471" fill="#5a7a00" font-size="11px">+</text>
<text x="445.6" y="471" fill="#1a2600" font-size="11px">..............</text>
<text x="538.0" y="471" fill="#5a7a00" font-size="11px">-</text>
<text x="544.6" y="471" fill="#c8ff00" font-size="11px">#######</text>
<text x="95.8" y="484" fill="#c8ff00" font-size="11px">#######</text>
<text x="142.0" y="484" fill="#5a7a00" font-size="11px">+</text>
<text x="148.6" y="484" fill="#1a2600" font-size="11px">.............</text>
<text x="234.4" y="484" fill="#c8ff00" font-size="11px">###########</text>
<text x="307.0" y="484" fill="#5a7a00" font-size="11px">-</text>
<text x="313.6" y="484" fill="#1a2600" font-size="11px">.......</text>
<text x="359.8" y="484" fill="#5a7a00" font-size="11px">-</text>
<text x="366.4" y="484" fill="#c8ff00" font-size="11px">###########</text>
<text x="439.0" y="484" fill="#1a2600" font-size="11px">..............</text>
<text x="531.4" y="484" fill="#5a7a00" font-size="11px">+</text>
<text x="538.0" y="484" fill="#c8ff00" font-size="11px">#######</text>
<text x="109.0" y="497" fill="#c8ff00" font-size="11px">#######</text>
<text x="155.2" y="497" fill="#5a7a00" font-size="11px">-</text>
<text x="161.8" y="497" fill="#1a2600" font-size="11px">............</text>
<text x="241.0" y="497" fill="#c8ff00" font-size="11px">#########</text>
<text x="300.4" y="497" fill="#5a7a00" font-size="11px">+</text>
<text x="307.0" y="497" fill="#1a2600" font-size="11px">.........</text>
<text x="366.4" y="497" fill="#5a7a00" font-size="11px">+</text>
<text x="373.0" y="497" fill="#c8ff00" font-size="11px">#########</text>
<text x="432.4" y="497" fill="#1a2600" font-size="11px">.............</text>
<text x="518.2" y="497" fill="#5a7a00" font-size="11px">-</text>
<text x="524.8" y="497" fill="#c8ff00" font-size="11px">########</text>
<text x="115.6" y="510" fill="#c8ff00" font-size="11px">########</text>
<text x="168.4" y="510" fill="#5a7a00" font-size="11px">-</text>
<text x="175.0" y="510" fill="#1a2600" font-size="11px">..........</text>
<text x="241.0" y="510" fill="#5a7a00" font-size="11px">-</text>
<text x="247.6" y="510" fill="#c8ff00" font-size="11px">#######</text>
<text x="293.8" y="510" fill="#5a7a00" font-size="11px">+</text>
<text x="300.4" y="510" fill="#1a2600" font-size="11px">...........</text>
<text x="373.0" y="510" fill="#5a7a00" font-size="11px">+</text>
<text x="379.6" y="510" fill="#c8ff00" font-size="11px">#######</text>
<text x="425.8" y="510" fill="#5a7a00" font-size="11px">-</text>
<text x="432.4" y="510" fill="#1a2600" font-size="11px">...........</text>
<text x="505.0" y="510" fill="#5a7a00" font-size="11px">-</text>
<text x="511.6" y="510" fill="#c8ff00" font-size="11px">########</text>
<text x="122.2" y="523" fill="#c8ff00" font-size="11px">#########</text>
<text x="181.6" y="523" fill="#5a7a00" font-size="11px">-</text>
<text x="188.2" y="523" fill="#1a2600" font-size="11px">..............................</text>
<text x="386.2" y="523" fill="#5a7a00" font-size="11px">-----</text>
<text x="419.2" y="523" fill="#1a2600" font-size="11px">...........</text>
<text x="491.8" y="523" fill="#5a7a00" font-size="11px">-</text>
<text x="498.4" y="523" fill="#c8ff00" font-size="11px">#########</text>
<text x="135.4" y="536" fill="#c8ff00" font-size="11px">#########</text>
<text x="194.8" y="536" fill="#5a7a00" font-size="11px">+</text>
<text x="201.4" y="536" fill="#1a2600" font-size="11px">..........................................</text>
<text x="478.6" y="536" fill="#5a7a00" font-size="11px">+</text>
<text x="485.2" y="536" fill="#c8ff00" font-size="11px">#########</text>
<text x="148.6" y="549" fill="#c8ff00" font-size="11px">##########</text>
<text x="214.6" y="549" fill="#5a7a00" font-size="11px">-</text>
<text x="221.2" y="549" fill="#1a2600" font-size="11px">....................................</text>
<text x="458.8" y="549" fill="#5a7a00" font-size="11px">-</text>
<text x="465.4" y="549" fill="#c8ff00" font-size="11px">##########</text>
<text x="161.8" y="562" fill="#c8ff00" font-size="11px">###########</text>
<text x="234.4" y="562" fill="#5a7a00" font-size="11px">+--</text>
<text x="254.2" y="562" fill="#1a2600" font-size="11px">...........................</text>
<text x="432.4" y="562" fill="#5a7a00" font-size="11px">-+</text>
<text x="445.6" y="562" fill="#c8ff00" font-size="11px">###########</text>
<text x="181.6" y="575" fill="#c8ff00" font-size="11px">#############</text>
<text x="267.4" y="575" fill="#5a7a00" font-size="11px">++-</text>
<text x="287.2" y="575" fill="#1a2600" font-size="11px">................</text>
<text x="392.8" y="575" fill="#5a7a00" font-size="11px">--+</text>
<text x="412.6" y="575" fill="#c8ff00" font-size="11px">#############</text>
<text x="201.4" y="588" fill="#c8ff00" font-size="11px">##########################################</text>
<text x="227.8" y="601" fill="#c8ff00" font-size="11px">##################################</text>
<text x="260.8" y="614" fill="#c8ff00" font-size="11px">#########################</text>
<text x="340" y="651" text-anchor="middle" fill="#c8ff00" font-size="22px" font-weight="600" font-family="-apple-system, BlinkMacSystemFont, 'Segoe UI', Helvetica, Arial, sans-serif">CodesWhat?</text>
<text x="340" y="687" text-anchor="middle" fill="#8b949e" font-size="13px" font-family="-apple-system, BlinkMacSystemFont, 'Segoe UI', Helvetica, Arial, sans-serif">if you'd like to build better worlds together</text>
<text x="340" y="711" text-anchor="middle" fill="#6e7681" font-size="12px" font-family="-apple-system, BlinkMacSystemFont, 'Segoe UI', Helvetica, Arial, sans-serif">...we mean software... reach out</text>
</svg>